<?xml version="1.0" encoding="utf-8"?>
<!-- Generator: Adobe Illustrator 27.5.0, SVG Export Plug-In . SVG Version: 6.00 Build 0)  -->
<svg version="1.1" xmlns="http://www.w3.org/2000/svg" xmlns:xlink="http://www.w3.org/1999/xlink" x="0px" y="0px"
	 viewBox="0 0 1366 768" style="enable-background:new 0 0 1366 768;" xml:space="preserve">
<style type="text/css">
	.st0{fill:none;stroke:#000000;stroke-width:3;stroke-miterlimit:10;}
	.st1{fill:none;stroke:#000000;stroke-miterlimit:10;}
	.st2{fill:none;stroke:#000000;stroke-width:5;stroke-miterlimit:10;}
</style>
<g id="WholeShoe">
	<path class="st0" d="M1214.5,306.5l4,20l4,29l4.2,28.5l3.8,36.5l5,47v100.2l-6,13.8l6,10.46l-3,111.54l-7.5,23.07l-10.5,8.61
		l-37,4.33h-86.2H444.09h-28.96l-48.63-4l-65-4l-78-10l-67-15l-24-21v-45.02l16-49.98l28-58l16.96-9.5l51.04-7.5l161-49l51-33
		c16.1-6.84,35.44-15.05,57.51-24.4c5.38-2.28,6.45-2.73,8.49-3.6c27.92-11.92,49.8-22.22,58-26c11.84-5.46,17.74-8.22,24.77-11.57
		c45.68-21.85,80.42-38.71,115.23-67.43c8.04-6.63,14.1-12.26,17-15c32-18,64-36,96-54h16.24l15.76,5l56,82l31,32l46,29l60,15h27
		l45-22l22-31l27-46l17-6l17,1L1214.5,306.5z"/>
	<path class="st0" d="M596.5,452.5c11.29,22.53,23.64,38.51,33,49c12.07,13.54,25.72,25.32,30,29c14.71,12.63,15.34,11.06,23,19
		c12.61,13.07,19.93,26.7,26,38c4.57,8.52,7.85,15.85,10,21"/>
	<path class="st0" d="M946.5,502.5c12,28.33,24,56.67,36,85"/>
	<path class="st0" d="M1235.5,602.5c-6.47,0.69-16.16,1.56-28,2c-13.18,0.49-21.79,0.19-36,0c-0.06,0-14.04,0-42,0
		c-86.88,0-82.56,0.07-89,0c-34.45-0.35-41.32-0.99-76-1c-22.46,0-35,0.26-49,1c-15.48,0.82-26.32,1.88-48,4
		c-26.32,2.58-46.05,5.02-62,7c-27.55,3.43-41.32,5.14-51,7c-29.17,5.61-29.91,8.78-56,13c-17.77,2.87-33.31,3.97-48,5
		c-8.21,0.58-10.41,0.59-38,2c-32.76,1.67-30,1.67-38,2c-33.08,1.37-59.71,0.56-77,0c-6.8-0.22-19.2-0.81-44-2
		c-14.43-0.69-27.59-1.32-40-2c-14.69-0.8-24.62-1.48-73-5c-60.42-4.4-65.52-4.86-75-6c-15.12-1.83-33.42-4.08-57-9
		c-27.07-5.65-49.48-12.4-66-18"/>
	<polyline class="st0" points="824.5,344.5 848.5,387.5 865.5,416.5 883.65,437.43 904.25,459.79 	"/>
	<path class="st1" d="M511.5,356.5"/>
	<path class="st0" d="M514.5,409.5c7.32,1.63,9.44,4.05,10,6c0.58,2.04-0.56,3.24,0,7c0.39,2.62,1.16,2.6,2,6
		c1.03,4.17,0.04,4.95,1,7c1.43,3.05,5.4,5.17,9,5c4.89-0.24,7.81-4.67,10-8c4.21-6.41,4.08-13.11,4-15
		c-0.48-11.31-8.26-18.47-10-20"/>
	<path class="st0" d="M564.5,386.5c0.35,1.63,1.12,3.81,3,5c2.96,1.87,5.96-0.46,8,1c2.45,1.76,0.4,6.8,0,14
		c-0.29,5.13-0.85,15.12,5,21c3.58,3.6,9.78,5.88,15,4c5.52-1.98,7.77-7.83,9-11c7.06-18.26-4.38-41.23-8-48"/>
	<path class="st0" d="M605.5,367.5c3.49-0.58,8.39-0.84,11,2c2.65,2.9,0.51,6.37,2,14c0.59,3.05,2.04,10.5,8,15
		c0.99,0.75,6.53,4.94,12,3c4.27-1.51,6.11-5.9,7-8c4.22-10.02,0.15-22.22-6-30c-3.12-3.94-6.54-6.47-9-8"/>
	<path class="st0" d="M653.5,344.5c2.71,2.4,6.41,6.3,9,12c1.5,3.31,1.42,4.32,3,10c2.91,10.44,4.4,15.77,9,19
		c6.04,4.24,13.55,2.13,14,2c5.16-1.53,9.26-5.52,11-10c4-10.28-4.37-23.19-11-29c-1.41-1.24-3.02-2.4-11-9c-2.53-2.09-4.6-3.83-6-5
		"/>
	<path class="st0" d="M729.5,291.5c-1.57,7.66-1.97,14.19-2,19c-0.04,7.21-0.09,11.6,2,17c1.22,3.15,1.89,3.35,5,10
		c4.67,9.99,4.26,11.96,4,13c-0.97,3.88-5.88,6.64-10,7c-8.97,0.79-15.51-9.62-17-12c-3.14-4.99-4-9.63-5-15
		c-1.4-7.5-1.31-13.82-1-18"/>
	<path class="st0" d="M789.5,256.5c4.49,2.74,10.99,6.6,19,11c11.04,6.06,15.26,7.82,21,13c4.22,3.81,13,11.74,11,19
		c-1.04,3.76-4.52,5.74-5,6c-4.47,2.45-9.43,0.76-15-1c-20.17-6.38-13.18-2.6-28-8c-13.69-4.99-18.49-7.8-20-6
		c-1.59,1.9,1.62,7.55,7,17c1.92,3.38,4.3,7.19,6,13c0.81,2.77,1.12,4.8,1,7c-0.09,1.79-0.31,5.85-3,9c-3.81,4.45-11.06,5.31-16,3
		c-2.83-1.32-4.27-3.39-8-10c-5.87-10.4-8.79-15.61-10-19c-4.14-11.56-4.53-22.28-4-30"/>
	<path class="st1" d="M779.5,304.5"/>
	<path class="st1" d="M785.5,329.5"/>
	<path class="st1" d="M834.5,304.5"/>
	<path class="st1" d="M829.5,281.5"/>
	<path class="st1" d="M712.5,276.5"/>
	<path class="st1" d="M463.5,454.5"/>
</g>
<g id="logo">
	<line class="st2" x1="975.5" y1="678.5" x2="1059.61" y2="678.5"/>
	<path class="st2" d="M1034.5,746.5"/>
	<line class="st2" x1="1140.61" y1="678.5" x2="1228.5" y2="678.5"/>
	<polyline class="st2" points="1071.5,688.5 1078.57,672.69 1088.5,650.5 1092.71,674.34 1095.22,688.5 	"/>
	<path class="st2" d="M1080.5,674.5h1.41h7.04C1092.5,674.5,1082.5,674.5,1080.5,674.5z"/>
	<path class="st2" d="M1081.5,674.5"/>
	<line class="st2" x1="1112.5" y1="648.5" x2="1102.85" y2="688.5"/>
	<path class="st2" d="M1111.65,688.5l10.96-38c0,0,14.89-1,11.89,8s-3,9-14,13"/>
	<path class="st2" d="M1125.5,695.5"/>
	<line class="st2" x1="1130.63" y1="688.5" x2="1118.11" y2="668.5"/>
	<path class="st2" d="M955.5,889.5"/>
</g>
<g id="shoeLayer">
	<polyline class="st0" points="1192.24,418.53 1173.5,428.5 1115.3,453.5 1023.5,482.5 944.5,500.5 865.5,519.5 808,526.5 
		772.5,526.5 743,523.61 719.5,513.5 704.5,495.5 698.5,459.5 715.5,429.5 745.5,402.5 778.78,380.5 787.5,380.5 792.35,384 
		784.5,409.5 785.5,430.5 794.5,447.5 805.5,458.5 825.5,463.5 841.5,465.5 875.5,463.5 906.5,459.5 936,455.78 973.5,449.5 
		1003.5,443.5 1040.5,435.5 1071.5,428.5 1102.5,420.5 1136.5,411.5 1151.87,407.12 	"/>
	<polyline class="st0" points="180.11,530.48 191.5,537.5 227.5,546.5 275.5,551.5 320.5,552.5 378.5,552.5 443.3,556.5 
		500.5,556.5 534.5,544.5 548.5,520.5 541.5,465.5 	"/>
	<polyline class="st0" points="1235.5,467.5 1208.5,425.5 1187.5,416.5 1157.5,410.5 1132.5,395.5 1160.5,372.5 1173.5,359.52 
		1184,332.13 1206.5,307.5 1212.5,304.5 1214.27,302.85 	"/>
	<path class="st0" d="M541.78,467.73c-11.09-18.74-22.19-37.49-33.28-56.23"/>
	<path class="st1" d="M531.5,310.5"/>
</g>
</svg>
