<?xml version="1.0" encoding="utf-8"?>
<!-- Generator: Adobe Illustrator 27.5.0, SVG Export Plug-In . SVG Version: 6.00 Build 0)  -->
<svg version="1.1" xmlns="http://www.w3.org/2000/svg" xmlns:xlink="http://www.w3.org/1999/xlink" x="0px" y="0px"
	 viewBox="0 0 1366 768" style="enable-background:new 0 0 1366 768;" xml:space="preserve">
<style type="text/css">
	.st0{fill:none;stroke:#000000;stroke-width:3;stroke-miterlimit:10;}
	.st1{fill:none;stroke:#000000;stroke-width:2;stroke-miterlimit:10;stroke-dasharray:6,5;}
	.st2{fill:none;stroke:#000000;stroke-miterlimit:10;stroke-dasharray:2,2;}
	.colorShoe{fill:lavender;}
	.outline{fill:darkgrey};
</style>
<g id="shoeColor">
	<path class="st0 colorShoe" d="M360,154c4.7-2.9,10.63,0.64,19.7,4.17c20.2,7.88,41.24,7.2,83.3,5.83c0.96-0.03,1.97-0.06,3.38-0.12
		c24.87-1.02,40.94-4.62,65.54-9.23c29.02-5.44,22.78-3.46,37.32-6.55c54.05-11.52,60.14-12.42,64.42-15.36
		c6.42-4.41,11.22-6.03,20.81-9.26c3.69-1.24,4.92-1.45,6.19-0.91c5.49,2.33,3.78,15.17,4.16,34.05c0.25,12.08,2.11,5.62,2.19,29.38
		c0.13,39.41,0.22,69.12,2,96c1.95,29.45,5.16,44.16,6.52,70.65c0.46,8.88,2.33,17.72,1.96,26.61c-0.4,9.56-2.01,19.01,2.52,21.74
		c2.63,1.58,5.07-0.46,8.04,1.74c3.33,2.46,1.87,6.2,5.09,9c0.59,0.52,1.91,1.49,9.78,1.96c8.48,0.5,10.29-0.43,14.87,0.39
		c5.39,0.97,8.98,3.36,10.57,4.3c12.12,7.21,56.3,18.76,69.65,22.3c52.77,13.99,43.44,14.17,118.57,36c0,0,12.37,3.59,33.57,12.38
		c0,0,15.28,6.33,34.52,19.71c3.15,2.19,6.68,4.84,9.39,9.39c1.26,2.12,2.28,4.93,4.32,10.57c2.89,7.96,2.54,8.36,3.92,10.28
		c3.41,4.76,6.81,4.12,8.97,7.71c3.44,5.72-1.03,14.26-1.57,15.26c-3.47,6.43-9.54,9.79-29.74,16.83
		c-18.55,6.46-25.43,8.22-25.43,8.22c-35.98,9.17-65.89,14.02-73.42,15.22c-16.54,2.64-27.82,4.44-43.09,6.07
		c-31.86,3.41-57.53,3.58-76.4,3.36c-90.17-1.06-110.9-12.03-191.35-10.57c-29.09,0.53-50.09,1.17-50.09,1.17
		c-33.41,1.02-66.76-3.53-100.17-4.3c-5.28-0.12-21.44,0.02-25.43-8.22c-1.57-3.24-1.2-7.63-0.78-12.52
		c0.42-4.92,0.74-8.74,3.52-11.35c2.94-2.75,5.47-1.19,7.83-3.52c3-2.97,0.91-7.52,0.45-16.67c-0.1-1.9,0.57-8.62,1.9-22.07
		c0.74-7.5,0.83-7.76,1.64-16.03c0.82-8.28,1.23-12.51,1.49-16.84c0.46-7.71,0.36-12.66,0.39-16.43c0.15-18.66,3.56-32.34,4.3-52.04
		c0.1-2.65,0.27-8.88-2.74-15.65c-1.34-3.01-2.81-5.03-3.13-5.48c-13.05-18.37-18.39-67.7-18.39-67.7
		c-0.46-4.24-5.78-28.52-16.43-77.09C359.34,186.75,350.03,160.16,360,154z"/>
</g>
<g id="shoeOutline">
	<path class="st0 outline" d="M394.57,589.78c-1.81,0.41,1.15,12.75,0.78,30.13c-0.22,10.23-1.37,11.61,0.39,15.26
		c3.56,7.39,14.13,14.08,22.7,12.13c3.24-0.74,6.22-2.94,9.78-1.57c2.89,1.11,2.6,3.21,5.48,5.48c5.22,4.12,15.09,4.24,20.74,0
		c2.52-1.89,3.29-3.97,5.48-3.91c2.43,0.06,2.9,2.67,6.65,4.7c2.97,1.61,7.59,2.64,9.39,0.78c1.87-1.93-0.62-5.64,1.17-7.04
		c1.52-1.18,4.97,0.16,7.04,1.96c1.98,1.72,1.84,3.09,3.13,3.91c2.7,1.72,6.2-2.67,11.74-4.3c4.61-1.36,7.73-0.11,12.91,0.78
		c8.96,1.54,11.14-0.24,23.87-0.39c27.89-0.33,38.75,7.94,47.74,0.78c1.61-1.28,4.98-4.51,7.83-3.52c2.79,0.97,2.4,5.07,5.87,6.65
		c1.49,0.68,1.94,0.1,7.43-0.39c6.89-0.61,7.89,0.14,10.17-1.17c2.49-1.44,2.13-2.82,4.7-4.3c2.35-1.35,4.69-1.36,8.22-1.17
		c12.29,0.66,13.73,0.41,14.87,1.57c1.75,1.77,1.09,3.28,3.13,4.7c1.72,1.19,3.23,0.86,7.43,0.78c8.73-0.15,9.86,1.16,12.13-0.39
		c2.37-1.62,1.82-3.52,4.7-5.09c0.55-0.3,3.41-1.86,5.87-0.78c2.73,1.2,1.89,4.31,4.7,6.26c1.53,1.06,2.33,0.51,8.61,0.78
		c6.93,0.3,7.82,1.05,9.39,0c2.86-1.91,1.36-5.36,4.3-7.43c2.59-1.83,6.78-1.28,9.39,0.39c2.67,1.71,2.13,3.61,4.7,5.09
		c2.05,1.18,3.15,0.41,8.61,0.39c7.8-0.02,9.02,1.55,11.74,0c2.5-1.42,2.47-3.31,5.48-4.3c0.64-0.21,2.91-0.96,5.09,0
		c2.08,0.92,1.84,2.43,3.91,3.91c1.98,1.42,5.03,2.08,7.43,1.17c2.83-1.07,2.3-3.39,5.48-5.09c2.52-1.34,6.18-1.66,7.83,0
		c1.26,1.27,0.4,2.75,1.57,3.91c1.46,1.46,4.06,0.35,8.22-0.39c9.03-1.61,11.06,1.06,14.48-1.57c1.71-1.32,2.38-2.9,5.48-4.7
		c2.19-1.27,3.24-1.29,3.91-1.17c1.78,0.31,1.98,1.75,3.91,3.13c1.66,1.19,3.88,1.38,8.31,1.75c3.66,0.31,5.49,0.46,6.56-0.18
		c2.89-1.74,1.34-5.27,3.91-7.43c2.76-2.32,7.69-0.9,14.87,1.17c4.29,1.24,3.93,1.61,7.04,2.35c4.7,1.11,10.08,2.38,14.48,0
		c4.72-2.56,3.75-6.85,9.39-9.39c1.28-0.57,4.04-1.82,6.65-0.78c2.89,1.14,2.51,3.86,5.48,5.48c3.46,1.89,8.67,0.76,9.78-1.57
		c0.23-0.49,0.09-0.63,0-4.7c-0.07-2.96,0-3.49,0.39-3.91c1.29-1.38,4.65-0.16,5.09,0c4.23,1.54,4.17,4.5,7.43,5.48
		c2.93,0.87,6.87-0.36,8.22-2.74c1.53-2.7-1.19-5.26,0.39-7.43c1.46-2.01,5.56-2.26,8.22-0.78c2.7,1.5,2,3.73,4.3,5.09
		c3.39,2,8.52-0.71,13.59-3.4c4.04-2.14,6.29-3.33,8.32-6c3.31-4.34,2.64-8.15,5.09-9c2.33-0.81,4.06,2.36,7.43,3.91
		c6.54,3.02,14.74-1.96,26.61-9.39c10.97-6.87,16.46-10.3,18.78-15.65c4.5-10.37,0.38-23.37-2.71-23.72
		c-1.13-0.13-1.55,1.5-4.47,3.95c-3.13,2.61-6.01,3.56-9.46,4.8c-10.63,3.81-6.57,3.17-16.23,6.36c-21.19,7-40.99,11.38-40.99,11.38
		c-19.59,4.34-33.86,7.5-55.52,10.88c-20.01,3.12-57.68,8.85-106.58,9.49c-38.08,0.5-69.21-2.26-93.17-4.38
		c-26.18-2.32-30.45-3.64-53.24-4.94c-35.25-2.02-66.14-1.22-74.68-0.97c-20.85,0.62-45.94,2.13-64.58,0.45
		c-1.68-0.15-9.41-0.88-20.03-1.54c-4.04-0.25-10.66-0.66-18.66-0.9c-13.38-0.41-26.73-1.61-40.11-2.03
		c-2.81-0.09-8.34-0.24-12.28-3.98C395.67,591.47,395.26,589.63,394.57,589.78z"/>
	<path class="st0 outline" d="M355.88,164.03c-0.48-0.05-4.3-20.08,6.99-30.94c6.78-6.52,18.37-9.13,19.57-9.39
		c9.72-2.12,10.82-0.6,25.83-3.13c6.32-1.06,10.84-2.13,13.3-2.74c7.74-1.92,13.23-3.88,14.48-4.3c16.06-5.48,51.92-4.48,89.22-6.26
		c18.6-0.89,27.91-1.33,41.48-3.13c37.11-4.91,45.78-6.26,45.78-6.26c0.44-0.07,14.14-2.2,26.61-0.78c2.45,0.28,6.07,1.1,13.3,2.74
		c5.68,1.29,6.61,1.9,7.43,2.74c2.92,2.96,3.29,12.66-1.57,18.04c-2.37,2.63-4.88,3.01-9.95,4.58
		c-16.39,5.09-17.57,9.67-32.81,13.51c-3.62,0.91-2.53,0.4-12.51,2.22c-16.58,3.04-24.85,5.43-35.91,7.86
		c-4.65,1.02-6.89,1.41-35.22,5.87c-36.64,5.77-55.07,8.66-60.58,8.98c-19.78,1.16-23.73-0.6-42.72,1.21
		c-3.48,0.33-9.28,0.96-17.12,0.33c-11.11-0.89-20.2-3.8-21.62-4.26c-5.12-1.67-9.56-3.64-19.06-6.34
		c-5.18-1.48-8.27-2.15-10.81-0.57C355.61,156.72,356.17,164.06,355.88,164.03z"/>
	<path class="st0 outline" d="M382.43,139.39c-0.4-3.81,20.72-8.95,27.39-10.57c13.68-3.32,21.78-4,46.96-6.65
		c48.5-5.1,50.71-5.97,63.39-5.87c6.07,0.05,13.08,0.31,23.87-0.39c10.9-0.7,19.16-1.96,30.57-3.73c11.58-1.8,23.22-3.26,34.77-5.27
		c10.05-1.74,20.31-3.73,25.67,1.9c1.14,1.19,1.74,1.83,1.76,2.75c0.26,12.18-104.5,22.87-115.09,23.92
		c-22.4,2.23-19.94,1.21-41.48,3.52c-26.71,2.87-42.58,6.06-66.91,5.09C399.91,143.55,382.8,142.79,382.43,139.39z"/>
	<path class="st0 outline" d="M462.26,124.13"/>
	<path class="st0 outline" d="M216.91,76.39"/>
	<path class="st0 outline" d="M746.74,110.83"/>
</g>
<g id="stitching">
	<path class="st1" d="M539.35,156.22c4,53.07,7.65,106.16,10.96,159.26c4.7,75.57,7.95,139.37,10.09,184.85
		c1.64,34.94,2.84,63.69,3.61,82.81"/>
	<path class="st1" d="M560.39,500.32c14.51-7.21,51.19-25.89,81.48-46.72c7.3-5.02,15.87-11.3,25.04-21.13
		c10.34-11.09,17-21.94,21.13-29.74"/>
	<path class="st2" d="M397.3,565.91c11.56,7.14,26.05,14.02,43.43,18c20.02,4.58,37.14,3.77,68.53,2.27
		c17.51-0.83,28.38-2.25,48.96-1.45c12.8,0.5,22.24,1.58,25.34,1.92c28.85,3.15,70.19,3.73,164.74,4.3
		c99.89,0.6,107.18,0.28,121.7-2.35c13.07-2.36,37.15-8.62,85.3-21.13c47.94-12.46,22.25-8.06,32.01-10.47
		c0.82-0.2,3.62-0.88,6.73-2.83c2.31-1.45,6.43-4.03,7.83-9c1.4-4.98-0.8-9.33-1.49-10.59"/>
	<path class="st0" d="M271.3,342.04"/>
	<path class="st0" d="M415.35,420.35c16.47,12.18,28.51,23.43,36.35,31.3c13.55,13.61,19.47,22.09,43.43,47.35
		c15.04,15.85,19.53,19.7,25.83,23.48c15.28,9.17,30.65,11.56,41,12.15"/>
</g>
</svg>
