<?xml version="1.0" encoding="utf-8"?>
<!-- Generator: Adobe Illustrator 27.5.0, SVG Export Plug-In . SVG Version: 6.00 Build 0)  -->
<svg version="1.1" xmlns="http://www.w3.org/2000/svg" xmlns:xlink="http://www.w3.org/1999/xlink" x="0px" y="0px"
	 viewBox="0 0 1366 768" style="enable-background:new 0 0 1366 768;" xml:space="preserve">
<style type="text/css">
	.st0{fill:none;}
	.st1{fill:none;stroke:#000000;stroke-miterlimit:10;}
	.st2{fill:none;stroke:#000000;stroke-width:5;stroke-miterlimit:10;}
	.st3{fill:none;stroke:#000000;stroke-width:3;stroke-miterlimit:10;}
	.st4{fill:#FFFFFF;}
	.st5{fill:#7F98FF;}
	.st6{fill:none;stroke:#FFFFFF;stroke-miterlimit:10;stroke-dasharray:2,2;}
	.st7{fill:none;stroke:#FFFFFF;stroke-width:2;stroke-miterlimit:10;stroke-dasharray:2,2;}
	.colorShoe{fill:black;}
</style>
<g id="shoeOutline">
	<path class="st0" d="M754.83,244c21.61,4.89,76.05,14.09,136.7-10.43c38.12-15.42,63.79-38.13,78.26-53.22"/>
	<path class="st1" d="M316.57,488.7c-3.23,0.09-6.46,2.31-8.14,5.09c-2.55,4.23-0.36,7.89-0.21,16.31c0.1,5.11-0.64,7.63-1.57,13.57
		c-3.67,23.58-6.94,44.59,3.13,54.26c1.42,1.36,4.77,2.99,11.48,6.26c0,0,9.43,4.59,19.3,7.83c31.19,10.21,66.26,8.87,66.26,8.87
		c93.15-3.57,186.44,3.61,279.65,2.09c82.73-1.35,115.79-0.72,177.39-5.74c0,0,69.73-5.68,139.83-27.65
		c22.09-6.92,11.22-6.2,54.78-23.48c8.17-3.24,15.54-6.04,21.39-13.57c7.39-9.52,7.83-20.79,8.35-34.43
		c0.37-9.63,0.63-19.25-4.17-30.26c-1.94-4.45-4.86-10.94-11.58-16.4c-11.3-9.2-25.64-9.23-25.98-8.12
		c-0.27,0.87,8.02,2.51,8.35,6.26c0.41,4.71-11.96,9.41-16.17,10.96c-63.55,23.29-110.71,28.09-110.71,28.09
		c-48.99,5.99-91.07,9.69-124.07,12.08c-19.48,1.41-47.86,3.44-85.57,4.7c-58.62,1.95-103.58,0.84-115.3,0.52
		c-62.43-1.71-63.44-5.06-106.96-4.17c-23.12,0.47-38.25,1.73-66.26,0.52c-22.58-0.98-32.38-2.64-53.22-3.13
		c0,0-10.5-0.25-25.03-1.72c-0.67-0.07-6.88-0.71-14.93-2.19c-6.04-1.11-9.11-1.69-11.69-2.87
		C320.56,490.36,319.5,488.62,316.57,488.7z"/>
	<path class="st2" d="M308.02,506.45c30.69,7.29,56.55,10.47,75.33,11.98c15.65,1.26,43.99,3.55,80.35,1.04
		c19.55-1.35,35.8-3.69,62.61-2.09c12.69,0.76,20.47,1.97,29.74,3.13c28.71,3.6,49.87,4,86.09,4.7
		c77.85,1.49,146.33-5.32,181.04-8.87c34.03-3.48,62.89-7.48,89.74-12c20.87-3.51,34.78-6.37,45.47-8.58
		c63.06-13.03,46.61-14.38,81.83-22.73c4.1-0.97,13.86-3.21,22.96-10.96c4.64-3.95,7.61-8.05,9.29-10.67"/>
	<path class="st2" d="M374.3,332.9c28.59,15.16,53.85,19.97,69.57,21.71c28.83,3.18,48.16-1.5,54.26-3.13
		c13.13-3.5,39.43-10.53,45.39-28.7c1.58-4.83,0.45-6.54,2.61-17.22c2.34-11.56,5.93-20.69,8.69-26.74"/>
</g>
<g id="shoeColor">
	<path class="st3 colorShoe" d="M358.57,317.83c5.53,0.25,9.05,6.55,12.13,10.96c4.01,5.73,12.77,11.89,30.3,24.22c30.8,21.65,63,25,63,25
		s41.7,4.33,78-20c16.71-11.2,20.11-20.42,21.22-24.52c3.22-11.92-1.01-24.87-1.22-25.48c-3.28-9.69-8.43-13.65-8-23
		c0.15-3.22,0.39-8.33,3.74-10.61c4.71-3.21,10.55,2.6,25.43,7.43c15.99,5.2,26.56,4.13,27.39,8.61c0.42,2.29-2.24,3.06-5.09,7.83
		c-4.43,7.43-6.05,19.11-0.39,26.61c0.35,0.47,5.47,7.08,11.35,6.26c6.13-0.85,11.29-9.54,12.91-16.43
		c0.89-3.79,0.63-6.66,2.74-7.83c1.52-0.84,3.09-0.14,8.61,1.96c9.96,3.79,10.86,3.82,11.35,5.09c1.35,3.49-4.44,5.88-6.26,13.7
		c-0.17,0.73-2.34,10.59,3.13,14.87c4,3.13,10.44,2,14.48-0.39c8.28-4.9,11.35-18,11.35-18c11.64,1.01,14.89,3.83,15.65,6.26
		c1.48,4.72-6.11,8.74-6.35,18.81c-0.04,1.91-0.17,7.29,3.21,9.75c3.97,2.89,10.39,0,12.13-0.78c10.1-4.55,9.54-12.86,17.22-14.87
		c6.13-1.61,13.8,1.77,14.87,5.87c1,3.83-4.42,5.8-6.26,13.7c-0.12,0.5-2.29,10.31,2.35,13.7c4.05,2.96,11.67-0.17,16.04-3.52
		c6.55-5.01,6.01-10.64,11.74-12.52c3.5-1.15,8.3-0.55,9.78,1.96c1.99,3.37-3.86,7.09-3.91,14.87c-0.03,5.15,2.48,11.88,7.43,13.7
		c5.94,2.18,12.82-3.63,14.09-4.7c5.44-4.59,4.98-8.72,9.39-10.17c3.72-1.22,8.99,0.08,10.57,3.13c2.19,4.24-4.51,8.46-3.13,16.04
		c0.11,0.6,1.12,5.71,5.48,8.22c5.44,3.13,11.85-0.24,12.13-0.39c5.54-3.01,4.98-8.19,9-9c3.76-0.76,8.82,2.8,10.17,7.04
		c1.71,5.35-3.39,8.92-1.17,12.91c1.06,1.91,3.71,2.84,9,4.7c3.98,1.4,5.97,2.1,7.43,1.57c4.76-1.72,0.36-14.2,4.3-16.43
		c3.1-1.75,7.85,4.39,16.04,9.39c9.9,6.04,15.42,4.65,39.13,9.39c14.01,2.8,13.36,3.54,26.22,6.26c17.99,3.81,33.12,5.02,63.39,7.43
		c15.75,1.26,31.13,7.4,46.91,6.72c0.57-0.02,3.38-0.18,5.91,1.5c1.77,1.17,3.91,3.56,3.52,5.87c-0.31,1.89-2.2,3.01-6.65,5.09
		c-9.42,4.39-12.13,5.09-12.13,5.09c-16.89,4.33-33.32,10.58-50.48,13.7c-42.6,7.74-41.83,9.75-75.91,15.26
		c-68.89,11.14-133.59,12.89-235.57,15.65c-55.24,1.5-71.31,0.86-80.61,0.39c-33.61-1.71-47.54-4.8-84.52-4.7
		c-14.81,0.04-11.98,0.54-47.35,1.17c-4.53,0.08-30.78,0.53-64.57,0c0,0-9.55-0.15-36.78-1.96c-2.43-0.16-10.75-1.54-27.39-4.3
		c-7.68-1.27-12.61-2.17-15.65-6.26c-2.1-2.83-2.45-6.04-2.35-13.3c0.15-10.8,0.23-16.2,1.57-22.7c4.26-20.68,1.45-27.37,9.78-81.39
		c0.28-1.83,1.81-11.45,5.87-23.48c2.91-8.63,6.33-16.15,12.52-23.09C350.54,321.49,354.09,317.62,358.57,317.83z"/>
	<path class="st4 colorShoe" d="M700.96,240.35"/>
</g>
<g id="stipe">
	<path class="st4" d="M410.22,427.78c4.24,3.65,10.58,9.43,17.61,17.22c10.32,11.44,11.87,15.87,18.78,19.96
		c4.4,2.6,9.85,4.4,28.57,4.3c14.59-0.08,24.98-0.13,41.09-3.13c13.39-2.49,40.81-7.97,70.43-25.43
		c19.39-11.44,24.91-19.29,41.09-21.13c9.6-1.09,16.96,0.69,31.3,4.3c21.13,5.32,25.66,9.68,49.62,18.12
		c19.87,7,35,10.44,50.55,13.97c26.54,6.02,36.56,6.26,41.09,6.26c23.24,0.01,34.7-6.06,39.91-9.39
		c7.28-4.65,16.23-12.79,14.48-17.22c-1-2.53-4.44-1.14-18-5.09c-5.83-1.7-9.41-3.18-14.48-2.35c-1.45,0.24-4.12,0.68-7.04,2.35
		c-3.07,1.75-3.01,2.91-5.48,3.91c-2.09,0.85-3.47,0.56-8.95,0.27c-5.19-0.28-6.07-0.14-8.23-0.29
		c-10.18-0.71-22.34-5.85-22.34-5.85c-12.41-5.25-12.2-2.69-45-14.09c-34.83-12.1-38.42-16.15-65.35-23.87
		c-9.78-2.8-23.4-6.31-39.91-3.91c-5.09,0.74-10.78,1.56-17.61,4.7c-9.53,4.38-12.11,9.05-23.87,15.26
		c-4.12,2.17-5.46,2.48-13.7,5.87c-16.24,6.68-25.59,11.5-30.52,13.7c-16.97,7.55-34.37,7.15-62.61,7.43
		C446.91,433.9,425.95,430.98,410.22,427.78z"/>
	<path class="st5" d="M474,464.17"/>
	<path class="st6" d="M761.61,275.96"/>
</g>
<g id="stitching">
	<path class="st7" d="M572.61,320.17c-1.81-5.91-3.67-14.58-3.13-25.04c0.3-5.76,1.25-10.77,2.35-14.87"/>
	<path class="st7" d="M330,388.26c17.45,10.44,36.81,23.65,56.74,40.3c29.61,24.74,51.99,50,68.48,71.61"/>
	<path class="st7" d="M331.96,377.7c17.43,10.54,36.84,23.99,56.74,41.09c32.07,27.56,55.27,55.92,71.61,79.43"/>
	<path class="st7" d="M612.13,503.3c24.9-18.49,48.08-26.88,62.99-30.96c0,0,41.24-11.29,83.75-5.04c8.82,1.3,17.66,2.39,26.49,3.59
		c21.16,2.88,22.91,3.14,26.73,2.67c10.15-1.27,13.75-5.13,31.3-13.7c6.19-3.02,15.51-7.3,27.39-11.74"/>
	<path class="st7" d="M626.22,504.09c17.43-13.8,33.38-20.22,44.22-23.48c30.14-9.07,61.1-5.87,83.74-3.52
		c8.33,0.86,16.68,1.56,25.01,2.35c27.07,2.58,31.56,3.11,38.77,1.17c7.82-2.1,9.2-4.51,25.04-13.3
		c12.28-6.82,22.64-11.57,29.35-14.48"/>
	<path class="st7" d="M890.74,488.04c-0.56-10.76-2.69-26.78-10.17-44.61c-5.88-14.02-13.2-24.69-19.17-32.09"/>
	<path class="st7" d="M898.96,486.48c0.21-7.93-0.42-24.32-9.39-42.26s-21.7-28.28-28.17-32.87"/>
	<path class="st6" d="M574.44,330.18c97.3,34.84,194.61,69.68,291.91,104.52"/>
	<path class="st6" d="M597.92,301.22c-8.35,8.61-16.7,17.22-25.04,25.83"/>
</g>
<g id="laces">
	<path class="st3" d="M610.57,290.43c7.9-1.17,15.36,1.64,19.04,7.3c2.24,3.44,2.51,7.06,2.48,9.13"/>
	<path class="st3" d="M652.04,313.91c-0.1-0.77-0.7-6.17,2.61-8.87c4.07-3.31,10.89,0.02,14.09,2.61c6.9,5.6,6.11,15.28,6,16.43"/>
	<path class="st3" d="M712.29,345.62c4.62-4.56,5.63-11.59,2.55-17.03c-3.43-6.06-10.52-7.64-14.67-6.85
		c-1.81,0.35-4,1.32-4.11,1.37c-2.61,1.17-4.49,2.65-5.67,3.72"/>
	<path class="st3" d="M731.28,345.8"/>
	<path class="st3" d="M731.48,349.13c1.51-1.51,4.23-3.7,7.83-3.91c6.29-0.37,13.05,5.46,15.26,14.67"/>
	<path class="st3" d="M858.51,403.91c-14.66-1.93-23.83-7.12-29.6-11.74c-8.6-6.89-19.22-20.14-25.04-17.61
		c-0.91,0.39-2.16,1.37-4.6,1.89c-0.38,0.08-4.46,0.91-7.14-0.33c-5.97-2.76-1.99-14.34-7.83-17.61c-2.64-1.48-6.33-0.72-13.7,0.78
		c-1.95,0.4-3.56,0.84-4.7,1.17"/>
</g>
</svg>
